inDegrees=yes
name=ik_appendData_armMove
DataType=double
version=3
OpenSimVersion=4.5
endheader
time	pelvis_tilt	pelvis_list	pelvis_rotation	pelvis_tx	pelvis_ty	pelvis_tz	hip_flexion_r	hip_adduction_r	hip_rotation_r	knee_angle_r	knee_angle_r_beta	ankle_angle_r	subtalar_angle_r	mtp_angle_r	hip_flexion_l	hip_adduction_l	hip_rotation_l	knee_angle_l	knee_angle_l_beta	ankle_angle_l	subtalar_angle_l	mtp_angle_l	lumbar_extension	lumbar_bending	lumbar_rotation	arm_flex_r	arm_add_r	arm_rot_r	elbow_flex_r	pro_sup_r	wrist_flex_r	wrist_dev_r	arm_flex_l	arm_add_l	arm_rot_l	elbow_flex_l	pro_sup_l	wrist_flex_l	wrist_dev_l
225	4.260424371987246	89.89932096009451	-4.254487478626261	0	0.9399999999999999	0	44.99438640776545	-10.00000020861888	0	59.99881591303994	1.047176884980515	-4.999999852663961	0	0	44.99438640776545	-10.00000020861888	0	59.99881591303994	1.047176884980515	-4.999999852663961	0	0	-0.2336030266743833	0.1733361239024865	-0.00194166813580031	0	-14.75286987366825	0	75.01625164292301	44.99999748484734	0	0	-89.47368441038221	-18.92629246802145	53.6854025978719	0.005568915819323916	44.99999748484734	0	0
226	5.155269667296051	89.89949709311935	-5.162701334836449	0	0.9399999999999999	0	44.99452054664595	-10.00000019301672	0	59.99884226784108	1.047177344958568	-4.99999985252173	0	0	44.99452054664595	-10.00000019301672	0	59.99884226784108	1.047177344958568	-4.99999985252173	0	0	-2.892485997868715	1.122970663511962	0.05822755608233669	0	-14.7560640573477	0	75.01586751550353	44.99999764641858	0	0	-89.95862309357315	-19.71239501207317	58.38126513182097	0.007717759785366188	44.99999764641858	0	0
227	5.095090270533229	89.64530552355089	-5.095938686960094	0	0.9399999999999999	0	44.99457724811624	-10.00000018553901	0	59.99885273760863	1.047177527690484	-4.999999852451595	0	0	44.99457724811624	-10.00000018553901	0	59.99885273760863	1.047177527690484	-4.999999852451595	0	0	-2.778218517379786	1.197165947463165	0.04109577064465345	0	-14.75734064903948	0	75.0157051421449	44.99999772192915	0	0	-89.95679222889845	-17.28565918565523	59.40985506313034	0.007274374003246473	44.99999772192915	0	0
228	4.729707898626963	89.65495966744786	-4.719449107914245	0	0.9399999999999999	0	44.99463931561468	-10.00000017786493	0	59.99886457431887	1.04717773428005	-4.999999852380917	0	0	44.99463931561468	-10.00000017786493	0	59.99886457431887	1.04717773428005	-4.999999852380917	0	0	-2.315422714768483	0.9307751418266575	0.02166203429396069	0	-14.75877736345794	0	75.01552740230596	44.99999780053501	0	0	-89.94788376779408	-14.40923368513803	59.58524484991287	0.006832644300492866	44.99999780053501	0	0
229	4.704485827211068	89.65789685515787	-4.703110243148197	0	0.9399999999999999	0	44.99466677815775	-10.00000017552093	0	59.9988710434334	1.047177847187398	-4.999999852361111	0	0	44.99466677815775	-10.00000017552093	0	59.9988710434334	1.047177847187398	-4.999999852361111	0	0	-2.052399588819106	0.6375985304447442	0.01596330023352518	0	-14.75952712355052	0	75.01544875898948	44.99999782640013	0	0	-89.94105374222532	-8.348667912440298	60.03271066821608	0.006737654006611827	44.99999782640013	0	0
230	4.654453728051031	89.65146615826362	-4.655384520740349	0	0.9399999999999999	0	44.99469972004464	-10.00000017273079	0	59.99887883181614	1.047177983120321	-4.999999852337576	0	0	44.99469972004464	-10.00000017273079	0	59.99887883181614	1.047177983120321	-4.999999852337576	0	0	-2.677057957416471	0.4313780588949881	0.01966382693328646	0	-14.76042951874742	0	75.01535442470671	44.99999785723459	0	0	-89.9550914119024	-1.821663252033791	61.06116425762306	0.006605093605427635	44.99999785723459	0	0
231	4.606140972063681	89.65035085619384	-4.604822327219896	0	0.9399999999999999	0	44.99474330841066	-10.00000016912526	0	59.99888918146139	1.047178163755707	-4.999999852307408	0	0	44.99474330841066	-10.00000016912526	0	59.99888918146139	1.047178163755707	-4.999999852307408	0	0	-3.047810071845887	-0.06569712458150556	0.004752554911128384	0	-14.76163152617282	0	75.01522960254678	44.99999789732022	0	0	-89.9605388750396	7.874478607064995	62.51799715080939	0.006334284999513385	44.99999789732022	0	0
232	4.572124218845788	89.65438822109677	-4.571609211588456	0	0.9399999999999999	0	44.99478956204651	-10.00000016534834	0	59.99890016721874	1.047178355493343	-4.999999852275939	0	0	44.99478956204651	-10.00000016534834	0	59.99890016721874	1.047178355493343	-4.999999852275939	0	0	-2.649695911663771	-0.5826231197392633	-0.002087774305546827	0	-14.76291159436805	0	75.01509714796238	44.99999793944971	0	0	-89.95464946038797	19.42928635957563	63.01515973390853	0.006029206527727075	44.99999793944971	0	0
